<svg width="32" height="32" viewBox="0 0 32 32" fill="none" xmlns="http://www.w3.org/2000/svg">
<path fill-rule="evenodd" clip-rule="evenodd" d="M13.1204 8.56285C11.5611 8.56285 10.2896 9.82792 10.2896 11.3977C10.2896 12.9675 11.5611 14.2326 13.1204 14.2326C14.6796 14.2326 15.9512 12.9675 15.9512 11.3977C15.9512 9.82792 14.6796 8.56285 13.1204 8.56285ZM9.28958 11.3977C9.28958 9.28885 11.0005 7.57178 13.1204 7.57178C15.2402 7.57178 16.9512 9.28885 16.9512 11.3977C16.9512 13.5066 15.2402 15.2236 13.1204 15.2236C11.0005 15.2236 9.28958 13.5066 9.28958 11.3977ZM21.276 9.64562C20.3905 9.64562 19.6652 10.3646 19.6652 11.2607C19.6652 12.1568 20.3905 12.8758 21.276 12.8758C22.1615 12.8758 22.8869 12.1568 22.8869 11.2607C22.8869 10.3646 22.1615 9.64562 21.276 9.64562ZM18.6652 11.2607C18.6652 9.82551 19.8299 8.65455 21.276 8.65455C22.7221 8.65455 23.8869 9.82551 23.8869 11.2607C23.8869 12.6959 22.7221 13.8669 21.276 13.8669C19.8299 13.8669 18.6652 12.6959 18.6652 11.2607ZM20.2581 16.8189C20.237 16.8189 20.2185 16.8192 20.2011 16.8198C20.022 16.826 19.2003 16.8626 18.4231 17.0172C18.0306 17.0952 17.6842 17.1969 17.443 17.3208C17.3235 17.3823 17.2519 17.4381 17.2135 17.4802C17.2014 17.4936 17.1939 17.504 17.1895 17.5113C18.333 17.5589 19.4665 18.1666 19.897 19.3243C19.9493 19.4649 20.0002 19.6125 20.0477 19.7657C20.1016 19.746 20.1598 19.7353 20.2206 19.7353C21.3508 19.7353 22.3673 19.704 23.1704 19.6248C23.5721 19.5852 23.9105 19.5345 24.1779 19.4728C24.4552 19.4088 24.6158 19.3418 24.6922 19.2912C24.7393 19.26 24.8289 19.1649 24.9055 19.0154C24.9823 18.8653 25.0038 18.7425 24.9994 18.6872C24.9983 18.6741 24.9978 18.661 24.9978 18.6478C24.9978 18.2258 24.8275 17.9188 24.5508 17.673C24.2597 17.4144 23.8474 17.2235 23.3922 17.0887C22.496 16.8233 21.5877 16.819 21.5729 16.8189C21.5727 16.8189 21.5727 16.8189 21.5729 16.8189L20.2581 16.8189ZM20.2728 20.7263C20.2915 20.8482 20.3061 20.9713 20.3161 21.095C20.3695 21.7582 20.1136 22.4523 19.5215 22.8445C18.5574 23.4833 16.5597 24.42 13.1615 24.42C9.76326 24.42 7.76561 23.4833 6.80146 22.8445C6.20938 22.4523 5.95352 21.7582 6.00689 21.095C6.05778 20.4626 6.23241 19.8447 6.42595 19.3243C6.8748 18.1174 8.08756 17.5083 9.27923 17.5083H16.1842C16.1835 17.4888 16.1839 17.4692 16.1855 17.4493C16.2273 16.929 16.6401 16.6171 16.9826 16.441C17.3471 16.2537 17.8007 16.1301 18.2264 16.0455C19.0855 15.8746 19.9728 15.8361 20.1659 15.8293C20.1984 15.8282 20.2292 15.8278 20.2581 15.8278H21.5729C21.588 15.8278 22.6271 15.8278 23.6785 16.1391C24.2045 16.2949 24.7734 16.5398 25.2183 16.935C25.6738 17.3397 25.9926 17.8985 25.9977 18.6299C26.0159 18.9269 25.9176 19.2288 25.7973 19.4638C25.6738 19.705 25.4851 19.958 25.248 20.1151C25.0206 20.2657 24.7198 20.3653 24.4047 20.438C24.0798 20.513 23.695 20.569 23.2694 20.611C22.4308 20.6937 21.3954 20.7254 20.2728 20.7263ZM9.27923 18.4993C8.39528 18.4993 7.63322 18.9438 7.36425 19.667C7.1895 20.1369 7.04491 20.662 7.00373 21.1738C6.97317 21.5535 7.12405 21.8661 7.35723 22.0206C8.1567 22.5503 9.9609 23.429 13.1615 23.429C16.3621 23.429 18.1663 22.5503 18.9658 22.0206C19.1989 21.8661 19.3498 21.5535 19.3193 21.1738C19.2781 20.662 19.1335 20.1369 18.9587 19.667C18.6898 18.9438 17.9277 18.4993 17.0438 18.4993H9.27923Z" fill="white"/>
</svg>
