<svg width="20" height="17" viewBox="0 0 20 17" fill="none" xmlns="http://www.w3.org/2000/svg">
<path fill-rule="evenodd" clip-rule="evenodd" d="M7.12049 1.13853C5.56125 1.13853 4.2897 2.4036 4.2897 3.97339C4.2897 5.54318 5.56125 6.80825 7.12049 6.80825C8.67974 6.80825 9.95129 5.54318 9.95129 3.97339C9.95129 2.4036 8.67974 1.13853 7.12049 1.13853ZM3.2897 3.97339C3.2897 1.86453 5.00064 0.147461 7.12049 0.147461C9.24035 0.147461 10.9513 1.86453 10.9513 3.97339C10.9513 6.08225 9.24035 7.79932 7.12049 7.79932C5.00064 7.79932 3.2897 6.08225 3.2897 3.97339ZM15.2762 2.22131C14.3907 2.22131 13.6653 2.94026 13.6653 3.83639C13.6653 4.73252 14.3907 5.45148 15.2762 5.45148C16.1617 5.45148 16.887 4.73252 16.887 3.83639C16.887 2.94026 16.1617 2.22131 15.2762 2.22131ZM12.6653 3.83639C12.6653 2.40119 13.83 1.23024 15.2762 1.23024C16.7223 1.23024 17.887 2.40119 17.887 3.83639C17.887 5.27159 16.7223 6.44255 15.2762 6.44255C13.83 6.44255 12.6653 5.27159 12.6653 3.83639ZM14.2582 9.3946C14.2371 9.3946 14.2186 9.39485 14.2012 9.39546C14.0222 9.40171 13.2005 9.43832 12.4232 9.59287C12.0307 9.67091 11.6843 9.77256 11.4431 9.89653C11.3236 9.95794 11.252 10.0138 11.2137 10.0559C11.2015 10.0693 11.1941 10.0797 11.1896 10.087C12.3331 10.1346 13.4666 10.7422 13.8972 11.9C13.9494 12.0405 14.0003 12.1882 14.0478 12.3414C14.1017 12.3217 14.1599 12.311 14.2207 12.311C15.3509 12.311 16.3674 12.2797 17.1705 12.2005C17.5722 12.1609 17.9106 12.1102 18.1781 12.0484C18.4553 11.9845 18.6159 11.9175 18.6923 11.8669C18.7394 11.8357 18.8291 11.7406 18.9056 11.5911C18.9824 11.441 19.0039 11.3182 18.9995 11.2629C18.9984 11.2498 18.9979 11.2367 18.9979 11.2235C18.9979 10.8015 18.8276 10.4945 18.5509 10.2487C18.2598 9.99012 17.8475 9.79921 17.3923 9.66442C16.4961 9.39903 15.5879 9.39467 15.5731 9.3946C15.5728 9.3946 15.5729 9.3946 15.5731 9.3946L14.2582 9.3946ZM14.273 13.302C14.2916 13.4239 14.3063 13.547 14.3162 13.6707C14.3696 14.3339 14.1137 15.0279 13.5217 15.4202C12.5575 16.059 10.5598 16.9957 7.16162 16.9957C3.76339 16.9957 1.76573 16.059 0.801587 15.4202C0.209506 15.0279 -0.0463583 14.3339 0.00701349 13.6707C0.0579059 13.0383 0.232535 12.4204 0.426075 11.9C0.874926 10.693 2.08768 10.0839 3.27935 10.0839H10.1843C10.1836 10.0645 10.184 10.0448 10.1856 10.025C10.2275 9.50471 10.6402 9.19277 10.9827 9.01672C11.3472 8.8294 11.8008 8.70581 12.2265 8.62116C13.0856 8.45033 13.973 8.41175 14.166 8.405C14.1986 8.40386 14.2294 8.40353 14.2582 8.40353H15.573C15.5881 8.40353 16.6272 8.40349 17.6786 8.71482C18.2046 8.87059 18.7735 9.11551 19.2184 9.5107C19.6739 9.91535 19.9927 10.4742 19.9978 11.2056C20.0161 11.5026 19.9177 11.8045 19.7974 12.0395C19.6739 12.2807 19.4852 12.5337 19.2481 12.6908C19.0208 12.8414 18.7199 12.941 18.4048 13.0137C18.0799 13.0887 17.6951 13.1447 17.2695 13.1867C16.431 13.2694 15.3956 13.3011 14.273 13.302ZM3.27935 11.075C2.3954 11.075 1.63334 11.5195 1.36437 12.2427C1.18962 12.7126 1.04503 13.2377 1.00385 13.7495C0.973292 14.1292 1.12418 14.4418 1.35735 14.5963C2.15682 15.126 3.96102 16.0046 7.16162 16.0046C10.3622 16.0046 12.1664 15.126 12.9659 14.5963C13.1991 14.4418 13.3499 14.1292 13.3194 13.7495C13.2782 13.2377 13.1336 12.7126 12.9589 12.2427C12.6899 11.5195 11.9278 11.075 11.0439 11.075H3.27935Z" fill="white"/>
</svg>
