<svg width="20" height="18" viewBox="0 0 20 18" fill="none" xmlns="http://www.w3.org/2000/svg">
<path fill-rule="evenodd" clip-rule="evenodd" d="M7.12049 1.56285C5.56125 1.56285 4.2897 2.82792 4.2897 4.39771C4.2897 5.9675 5.56125 7.23257 7.12049 7.23257C8.67974 7.23257 9.95129 5.9675 9.95129 4.39771C9.95129 2.82792 8.67974 1.56285 7.12049 1.56285ZM3.2897 4.39771C3.2897 2.28885 5.00064 0.571777 7.12049 0.571777C9.24035 0.571777 10.9513 2.28885 10.9513 4.39771C10.9513 6.50657 9.24035 8.22364 7.12049 8.22364C5.00064 8.22364 3.2897 6.50657 3.2897 4.39771ZM15.2762 2.64562C14.3907 2.64562 13.6653 3.36458 13.6653 4.26071C13.6653 5.15684 14.3907 5.8758 15.2762 5.8758C16.1617 5.8758 16.887 5.15684 16.887 4.26071C16.887 3.36458 16.1617 2.64562 15.2762 2.64562ZM12.6653 4.26071C12.6653 2.82551 13.83 1.65455 15.2762 1.65455C16.7223 1.65455 17.887 2.82551 17.887 4.26071C17.887 5.69591 16.7223 6.86687 15.2762 6.86687C13.83 6.86687 12.6653 5.69591 12.6653 4.26071ZM14.2582 9.81891C14.2371 9.81891 14.2186 9.81916 14.2012 9.81977C14.0222 9.82603 13.2005 9.86263 12.4232 10.0172C12.0307 10.0952 11.6843 10.1969 11.4431 10.3208C11.3236 10.3823 11.252 10.4381 11.2137 10.4802C11.2015 10.4936 11.1941 10.504 11.1896 10.5113C12.3331 10.5589 13.4666 11.1666 13.8972 12.3243C13.9494 12.4649 14.0003 12.6125 14.0478 12.7657C14.1017 12.746 14.1599 12.7353 14.2207 12.7353C15.3509 12.7353 16.3674 12.704 17.1705 12.6248C17.5722 12.5852 17.9106 12.5345 18.1781 12.4728C18.4553 12.4088 18.6159 12.3418 18.6923 12.2912C18.7394 12.26 18.8291 12.1649 18.9056 12.0154C18.9824 11.8653 19.0039 11.7425 18.9995 11.6872C18.9984 11.6741 18.9979 11.661 18.9979 11.6478C18.9979 11.2258 18.8276 10.9188 18.5509 10.673C18.2598 10.4144 17.8475 10.2235 17.3923 10.0887C16.4961 9.82335 15.5879 9.81899 15.5731 9.81891V9.81891L14.2582 9.81891ZM14.273 13.7263C14.2916 13.8482 14.3063 13.9713 14.3162 14.095C14.3696 14.7582 14.1137 15.4523 13.5217 15.8445C12.5575 16.4833 10.5598 17.42 7.16162 17.42C3.76339 17.42 1.76573 16.4833 0.801587 15.8445C0.209506 15.4523 -0.0463583 14.7582 0.00701349 14.095C0.0579059 13.4626 0.232535 12.8447 0.426075 12.3243C0.874926 11.1174 2.08768 10.5083 3.27935 10.5083H10.1843C10.1836 10.4888 10.184 10.4692 10.1856 10.4493C10.2275 9.92903 10.6402 9.61709 10.9827 9.44103C11.3472 9.25371 11.8008 9.13012 12.2265 9.04548C13.0856 8.87465 13.973 8.83606 14.166 8.82932C14.1986 8.82818 14.2294 8.82784 14.2582 8.82784H15.573C15.5881 8.82784 16.6272 8.82781 17.6786 9.13914C18.2046 9.29491 18.7735 9.53983 19.2184 9.93502C19.6739 10.3397 19.9927 10.8985 19.9978 11.6299C20.0161 11.9269 19.9177 12.2288 19.7974 12.4638C19.6739 12.705 19.4852 12.958 19.2481 13.1151C19.0208 13.2657 18.7199 13.3653 18.4048 13.438C18.0799 13.513 17.6951 13.569 17.2695 13.611C16.431 13.6937 15.3956 13.7254 14.273 13.7263ZM3.27935 11.4993C2.3954 11.4993 1.63334 11.9438 1.36437 12.667C1.18962 13.1369 1.04503 13.662 1.00385 14.1738C0.973292 14.5535 1.12418 14.8661 1.35735 15.0206C2.15682 15.5503 3.96102 16.429 7.16162 16.429C10.3622 16.429 12.1664 15.5503 12.9659 15.0206C13.1991 14.8661 13.3499 14.5535 13.3194 14.1738C13.2782 13.662 13.1336 13.1369 12.9589 12.667C12.6899 11.9438 11.9278 11.4993 11.0439 11.4993H3.27935Z" fill="white"/>
</svg>
