<svg width="25" height="25" viewBox="0 0 34 34" fill="none" xmlns="http://www.w3.org/2000/svg">
<path d="M17 21.7005C15.6405 21.7005 14.5385 22.7927 14.5385 24.1401C14.5385 25.4874 15.6405 26.5796 17 26.5796C18.3595 26.5796 19.4615 25.4874 19.4615 24.1401C19.4615 22.7927 18.3595 21.7005 17 21.7005ZM17 21.7005L20.6923 13.162M7.15385 16.8214C7.15385 11.432 11.5621 7.06314 17 7.06314C22.4379 7.06314 26.8462 11.432 26.8462 16.8214M33 16.8214C33 25.579 25.8366 32.6785 17 32.6785C8.16344 32.6785 1 25.579 1 16.8214C1 8.06372 8.16344 0.964233 17 0.964233C25.8366 0.964233 33 8.06372 33 16.8214Z" stroke="white" stroke-linecap="round" stroke-linejoin="round"/>
</svg>
