<svg width="28" height="32" viewBox="0 0 32 32" fill="none" xmlns="http://www.w3.org/2000/svg">
<path fill-rule="evenodd" clip-rule="evenodd" d="M16 4.2501C9.37258 4.2501 4 9.57472 4 16.143C4 22.7112 9.37258 28.0358 16 28.0358C22.6274 28.0358 28 22.7112 28 16.143C28 9.57472 22.6274 4.2501 16 4.2501ZM3 16.143C3 9.02736 8.8203 3.25903 16 3.25903C23.1797 3.25903 29 9.02736 29 16.143C29 23.2586 23.1797 29.0269 16 29.0269C8.8203 29.0269 3 23.2586 3 16.143Z" fill="white"/>
<path fill-rule="evenodd" clip-rule="evenodd" d="M14.5 7.71887C14.7761 7.71887 15 7.94073 15 8.21441V10.6921H17V8.21441C17 7.94073 17.2239 7.71887 17.5 7.71887C17.7761 7.71887 18 7.94073 18 8.21441V10.6921C18.7956 10.6921 19.5587 11.0053 20.1213 11.5629C20.6839 12.1205 21 12.8768 21 13.6653C21 14.4538 20.6839 15.2101 20.1213 15.7677C20.0981 15.7908 20.0744 15.8134 20.0505 15.8357C20.4488 15.9832 20.8148 16.2145 21.1213 16.5182C21.6839 17.0758 22 17.8321 22 18.6207C22 19.4092 21.6839 20.1655 21.1213 20.7231C20.5587 21.2807 19.7956 21.5939 19 21.5939H18V24.0715C18 24.3452 17.7761 24.5671 17.5 24.5671C17.2239 24.5671 17 24.3452 17 24.0715V21.5939H15V24.0715C15 24.3452 14.7761 24.5671 14.5 24.5671C14.2239 24.5671 14 24.3452 14 24.0715V21.5939H10.5C10.2239 21.5939 10 21.372 10 21.0983C10 20.8247 10.2239 20.6028 10.5 20.6028H12V11.6832H10.5C10.2239 11.6832 10 11.4613 10 11.1876C10 10.9139 10.2239 10.6921 10.5 10.6921H14V8.21441C14 7.94073 14.2239 7.71887 14.5 7.71887ZM13 11.6832V15.6474H18C18.5305 15.6474 19.0392 15.4386 19.4142 15.0669C19.7893 14.6952 20 14.191 20 13.6653C20 13.1396 19.7893 12.6354 19.4142 12.2637C19.0392 11.892 18.5305 11.6832 18 11.6832H13ZM13 16.6385V20.6028H19C19.5305 20.6028 20.0392 20.394 20.4142 20.0223C20.7893 19.6506 21 19.1464 21 18.6207C21 18.0949 20.7893 17.5907 20.4142 17.219C20.0392 16.8473 19.5305 16.6385 19 16.6385H13Z" fill="white"/>
</svg>
