<svg width="18" height="21" viewBox="0 0 18 21" fill="none" xmlns="http://www.w3.org/2000/svg">
<path d="M11.702 17.1938C11.702 18.7343 10.4092 19.9831 8.81441 19.9831C7.21963 19.9831 5.92681 18.7343 5.92681 17.1938H11.702Z" fill="#04297F"/>
<path d="M15.8284 17.1938H2.17164C1.33498 17.1938 0.928717 16.5168 1.01026 15.7454C1.02967 15.5618 1.10624 15.3902 1.19919 15.2301L2.46866 13.0441C2.74877 12.5618 2.92325 12.0264 2.98073 11.4728L3.2871 8.52179C3.3143 8.25979 3.35303 8.00015 3.43005 7.74805C3.70522 6.84749 4.5981 4.59126 6.83431 3.65961V3.24725C6.83431 2.09188 7.80393 1.15527 9.00001 1.15527C10.1961 1.15527 11.1657 2.09188 11.1657 3.24725V3.65962C13.3271 4.56008 14.2335 6.69793 14.5402 7.65316C14.6411 7.9672 14.685 8.29329 14.7108 8.62185L14.9259 11.3676C14.9746 11.9888 15.1704 12.5898 15.4974 13.122L16.7817 15.2123C16.8873 15.384 16.9738 15.5701 16.9923 15.7704C17.0625 16.5314 16.656 17.1938 15.8284 17.1938Z" fill="#04297F"/>
<path d="M11.702 17.1938C11.702 18.7343 10.4092 19.9831 8.81441 19.9831C7.21963 19.9831 5.92681 18.7343 5.92681 17.1938H11.702Z" stroke="white"/>
<path d="M15.8284 17.1938H2.17164C1.33498 17.1938 0.928717 16.5168 1.01026 15.7454C1.02967 15.5618 1.10624 15.3902 1.19919 15.2301L2.46866 13.0441C2.74877 12.5618 2.92325 12.0264 2.98073 11.4728L3.2871 8.52179C3.3143 8.25979 3.35303 8.00015 3.43005 7.74805C3.70522 6.84749 4.5981 4.59126 6.83431 3.65961V3.24725C6.83431 2.09188 7.80393 1.15527 9.00001 1.15527C10.1961 1.15527 11.1657 2.09188 11.1657 3.24725V3.65962C13.3271 4.56008 14.2335 6.69793 14.5402 7.65316C14.6411 7.9672 14.685 8.29329 14.7108 8.62185L14.9259 11.3676C14.9746 11.9888 15.1704 12.5898 15.4974 13.122L16.7817 15.2123C16.8873 15.384 16.9738 15.5701 16.9923 15.7704C17.0625 16.5314 16.656 17.1938 15.8284 17.1938Z" stroke="white"/>
</svg>
