<svg width="25" height="25" viewBox="0 0 32 33" fill="none" xmlns="http://www.w3.org/2000/svg">
<path d="M19.2877 12.6635C19.2877 14.4796 17.8155 15.9519 15.9993 15.9519C14.1831 15.9519 12.7108 14.4796 12.7108 12.6635C12.7108 10.8473 14.1831 9.375 15.9993 9.375C17.8155 9.375 19.2877 10.8473 19.2877 12.6635Z" stroke="white"/>
<path d="M15.9993 23.625C19.2568 23.625 21.1335 22.7848 22.0041 22.2439C22.4115 21.9909 22.6123 21.5249 22.5709 21.0422C22.5143 20.383 22.284 19.7246 22.0494 19.2023C21.7415 18.5166 21.0287 18.1442 20.277 18.1442H11.7216C10.9699 18.1442 10.2571 18.5166 9.94915 19.2023C9.71462 19.7245 9.48428 20.383 9.4277 21.0422C9.38627 21.5249 9.58706 21.9909 9.99444 22.2439C10.865 22.7848 12.7418 23.625 15.9993 23.625Z" stroke="white"/>
<rect x="0.5" y="1.14282" width="31" height="30.7143" rx="15.3571" stroke="white"/>
</svg>
