<svg width="32" height="33" viewBox="0 0 32 33" fill="none" xmlns="http://www.w3.org/2000/svg">
<path d="M19.2879 12.6635C19.2879 14.4796 17.8156 15.9519 15.9994 15.9519C14.1832 15.9519 12.7109 14.4796 12.7109 12.6635C12.7109 10.8473 14.1832 9.375 15.9994 9.375C17.8156 9.375 19.2879 10.8473 19.2879 12.6635Z" stroke="white"/>
<path d="M15.9994 23.625C19.2569 23.625 21.1337 22.7848 22.0043 22.2439C22.4116 21.9909 22.6124 21.5249 22.571 21.0422C22.5144 20.383 22.2841 19.7246 22.0495 19.2023C21.7416 18.5166 21.0288 18.1442 20.2771 18.1442H11.7217C10.97 18.1442 10.2572 18.5166 9.94927 19.2023C9.71474 19.7245 9.4844 20.383 9.42782 21.0422C9.38639 21.5249 9.58718 21.9909 9.99456 22.2439C10.8652 22.7848 12.7419 23.625 15.9994 23.625Z" stroke="white"/>
<rect x="0.5" y="1.14282" width="31" height="30.7143" rx="15.3571" stroke="white"/>
</svg>
