<svg width="16" height="20" viewBox="0 0 16 21" fill="none" xmlns="http://www.w3.org/2000/svg">
<path d="M12.5 2.97181H13.5C14.6046 2.97181 15.5 3.85924 15.5 4.95395L15.5 17.6473C15.5 18.742 14.6046 19.6294 13.5 19.6294L2.50002 19.6294C1.39545 19.6294 0.500017 18.742 0.500015 17.6473L0.5 4.95395C0.499998 3.85924 1.39543 2.97181 2.5 2.97181H3.5M8.00002 0.799072C8.47021 0.799072 8.88987 1.00798 9.1649 1.33491C9.51855 1.75533 9.94773 2.24756 10.5 2.24756H11.5C12.0523 2.24756 12.5 2.69128 12.5 3.23863V4.15347C12.5 4.70082 12.0523 5.14454 11.5 5.14454H4.50002C3.94773 5.14454 3.50002 4.70082 3.50002 4.15347V3.23863C3.50002 2.69128 3.94773 2.24756 4.50002 2.24756H5.50002C6.0523 2.24756 6.48148 1.75533 6.83514 1.33491C7.11016 1.00798 7.52982 0.799072 8.00002 0.799072Z" stroke="white" stroke-linecap="round"/>
</svg>
