<svg width="32" height="33" viewBox="0 0 32 33" fill="none" xmlns="http://www.w3.org/2000/svg">
<path d="M16 7.29492C17.2108 7.29492 18.1923 8.26768 18.1923 9.46766C18.1923 9.66498 18.3221 9.8381 18.5091 9.90584C18.7033 9.97621 18.8937 10.0545 19.0799 10.1404C19.2606 10.2237 19.4762 10.1923 19.6171 10.0526C20.4733 9.20406 21.8614 9.20406 22.7175 10.0526C23.5737 10.9011 23.5737 12.2768 22.7175 13.1253C22.5766 13.265 22.5448 13.4786 22.6289 13.6578C22.7156 13.8422 22.7946 14.0309 22.8656 14.2234C22.9339 14.4088 23.1086 14.5374 23.3077 14.5374C24.5185 14.5374 25.5 15.5101 25.5 16.7101C25.5 17.9101 24.5185 18.8828 23.3077 18.8828C23.1086 18.8828 22.9339 19.0114 22.8656 19.1968C22.7946 19.3893 22.7155 19.578 22.6289 19.7625C22.5448 19.9416 22.5765 20.1552 22.7175 20.2949C23.5737 21.1434 23.5737 22.5191 22.7175 23.3676C21.8614 24.2161 20.4733 24.2161 19.6171 23.3676C19.4762 23.2279 19.2606 23.1965 19.0799 23.2798C18.8937 23.3657 18.7033 23.444 18.5091 23.5144C18.3221 23.5821 18.1923 23.7552 18.1923 23.9525C18.1923 25.1525 17.2108 26.1253 16 26.1253C14.7892 26.1253 13.8077 25.1525 13.8077 23.9525C13.8077 23.7552 13.6779 23.5821 13.4909 23.5144C13.2967 23.444 13.1063 23.3657 12.9202 23.2798C12.7394 23.1965 12.5239 23.2279 12.3829 23.3676C11.5267 24.2161 10.1386 24.2161 9.28249 23.3676C8.42634 22.5191 8.42634 21.1434 9.28249 20.2949C9.42346 20.1552 9.45521 19.9416 9.37109 19.7625C9.28446 19.578 9.20543 19.3893 9.13442 19.1968C9.06607 19.0114 8.89139 18.8828 8.69231 18.8828C7.48153 18.8828 6.5 17.9101 6.5 16.7101C6.5 15.5101 7.48153 14.5374 8.69231 14.5374C8.89139 14.5374 9.06607 14.4088 9.13442 14.2234C9.20543 14.0309 9.28445 13.8422 9.37108 13.6578C9.45519 13.4786 9.42344 13.265 9.28249 13.1253C8.42634 12.2768 8.42634 10.9011 9.28249 10.0526C10.1386 9.20406 11.5267 9.20406 12.3829 10.0526C12.5238 10.1923 12.7394 10.2237 12.9201 10.1404C13.1063 10.0545 13.2967 9.97621 13.4909 9.90584C13.6779 9.8381 13.8077 9.66498 13.8077 9.46766C13.8077 8.26768 14.7892 7.29492 16 7.29492Z" stroke="white"/>
<path d="M20.2222 16.7101C20.2222 19.0211 18.3319 20.8946 16 20.8946C13.6681 20.8946 11.7778 19.0211 11.7778 16.7101C11.7778 14.3991 13.6681 12.5256 16 12.5256C18.3319 12.5256 20.2222 14.3991 20.2222 16.7101Z" stroke="white"/>
</svg>
