<svg width="20" height="20" viewBox="0 0 20 20" fill="none" xmlns="http://www.w3.org/2000/svg">
<path d="M10 0.513184C11.2108 0.513184 12.1923 1.48595 12.1923 2.68592C12.1923 2.88324 12.3221 3.05637 12.5091 3.12411C12.7033 3.19447 12.8937 3.27277 13.0799 3.35862C13.2606 3.44198 13.4762 3.41053 13.6171 3.27083C14.4733 2.42233 15.8614 2.42233 16.7175 3.27083C17.5737 4.11933 17.5737 5.49506 16.7175 6.34356C16.5766 6.48326 16.5448 6.69691 16.6289 6.87603C16.7156 7.0605 16.7946 7.24919 16.8656 7.44171C16.9339 7.62702 17.1086 7.75563 17.3077 7.75563C18.5185 7.75563 19.5 8.72839 19.5 9.92836C19.5 11.1283 18.5185 12.1011 17.3077 12.1011C17.1086 12.1011 16.9339 12.2297 16.8656 12.415C16.7946 12.6075 16.7155 12.7963 16.6289 12.9807C16.5448 13.1599 16.5765 13.3735 16.7175 13.5132C17.5737 14.3617 17.5737 15.7374 16.7175 16.5859C15.8614 17.4344 14.4733 17.4344 13.6171 16.5859C13.4762 16.4462 13.2606 16.4147 13.0799 16.4981C12.8937 16.5839 12.7033 16.6622 12.5091 16.7326C12.3221 16.8004 12.1923 16.9735 12.1923 17.1708C12.1923 18.3708 11.2108 19.3435 10 19.3435C8.78922 19.3435 7.80769 18.3708 7.80769 17.1708C7.80769 16.9735 7.67792 16.8004 7.49092 16.7326C7.29668 16.6623 7.10629 16.5839 6.92017 16.4981C6.73943 16.4147 6.52385 16.4462 6.38288 16.5859C5.52674 17.4344 4.13864 17.4344 3.28249 16.5859C2.42634 15.7374 2.42634 14.3617 3.28249 13.5132C3.42346 13.3735 3.45521 13.1599 3.37109 12.9807C3.28446 12.7963 3.20543 12.6075 3.13442 12.415C3.06607 12.2297 2.89139 12.1011 2.69231 12.1011C1.48153 12.1011 0.5 11.1283 0.5 9.92836C0.5 8.72839 1.48153 7.75563 2.69231 7.75563C2.89139 7.75563 3.06607 7.62702 3.13442 7.44171C3.20543 7.24919 3.28445 7.06049 3.37108 6.87601C3.45519 6.6969 3.42344 6.48326 3.28249 6.34356C2.42634 5.49502 2.42634 4.11933 3.28249 3.27083C4.13864 2.42233 5.52674 2.42233 6.38288 3.27083C6.52384 3.41052 6.7394 3.44198 6.92013 3.35863C7.10627 3.27278 7.29667 3.19447 7.49092 3.12411C7.67792 3.05637 7.80769 2.88324 7.80769 2.68592C7.80769 1.48595 8.78922 0.513184 10 0.513184Z" stroke="white"/>
<path d="M14.2222 9.92836C14.2222 12.2394 12.3319 14.1129 10 14.1129C7.66813 14.1129 5.77778 12.2394 5.77778 9.92836C5.77778 7.61731 7.66813 5.74384 10 5.74384C12.3319 5.74384 14.2222 7.61731 14.2222 9.92836Z" stroke="white"/>
</svg>
