<svg width="24" height="24" viewBox="0 0 24 24" fill="none" xmlns="http://www.w3.org/2000/svg">
<path d="M5.79979 3.25307C7.62136 2.00296 9.78432 1.33321 12 1.33321C14.2157 1.33321 16.3786 2.00296 18.2002 3.25308M20.9693 5.99743C22.2307 7.80274 22.9064 9.9464 22.9064 12.1423C22.9064 14.3382 22.2307 16.4818 20.9693 18.2871M3.0307 5.99743C1.76933 7.80274 1.09355 9.94639 1.09355 12.1423C1.09355 14.3382 1.76933 16.4818 3.03071 18.2871M5.79978 21.0315C7.62136 22.2816 9.78434 22.9514 12 22.9514C14.2157 22.9514 16.3786 22.2816 18.2002 21.0315M7.96723 6.36181C9.15266 5.55031 10.5593 5.11566 12 5.11566C13.4407 5.11566 14.8473 5.55031 16.0328 6.36181M17.8325 8.14552C18.6514 9.32037 19.0899 10.7144 19.0899 12.1423C19.0899 13.5701 18.6514 14.9642 17.8325 16.139M6.16745 8.14552C5.34864 9.32037 4.91007 10.7144 4.91007 12.1423C4.91007 13.5702 5.34864 14.9642 6.16745 16.139M7.96723 17.9228C9.15266 18.7343 10.5593 19.1689 12 19.1689C13.4407 19.1689 14.8473 18.7343 16.0328 17.9228M16.3709 8.06525L16.1138 7.81043C15.9332 7.6317 15.8216 7.39588 15.7983 7.144C15.775 6.89212 15.8416 6.64013 15.9865 6.43188L18.5692 2.72561C18.6151 2.66151 18.6747 2.60812 18.7436 2.56918C18.8125 2.53023 18.8892 2.50666 18.9683 2.50011C19.0474 2.49356 19.1269 2.50419 19.2014 2.53125C19.2759 2.55832 19.3436 2.60116 19.3996 2.65681L21.5748 4.81254C21.6309 4.86811 21.6742 4.93515 21.7015 5.00899C21.7288 5.08282 21.7395 5.16167 21.7329 5.24004C21.7263 5.3184 21.7025 5.39439 21.6632 5.46271C21.6239 5.53103 21.57 5.59003 21.5054 5.63559L17.7657 8.1952C17.5548 8.33929 17.2995 8.40524 17.0445 8.38148C16.7894 8.35772 16.551 8.24577 16.3709 8.06525ZM7.88624 16.4741L7.62913 16.2193C7.44878 16.0403 7.21083 15.9297 6.95669 15.9067C6.70254 15.8836 6.44828 15.9496 6.23816 16.0932L2.49849 18.6528C2.43382 18.6984 2.37995 18.7574 2.34065 18.8257C2.30135 18.894 2.27758 18.97 2.27097 19.0483C2.26436 19.1267 2.27508 19.2056 2.30239 19.2794C2.3297 19.3532 2.37293 19.4203 2.42907 19.4758L4.60423 21.6316C4.6603 21.6872 4.72794 21.7301 4.80244 21.7571C4.87694 21.7842 4.9565 21.7948 5.03557 21.7883C5.11465 21.7817 5.19132 21.7582 5.26026 21.7192C5.32919 21.6803 5.38872 21.6269 5.43469 21.5628L8.01736 17.8565C8.16275 17.6475 8.22929 17.3944 8.20532 17.1417C8.18134 16.8889 8.06838 16.6526 7.88624 16.4741ZM16.1138 16.4741L16.3709 16.2193C16.5512 16.0403 16.7892 15.9297 17.0433 15.9067C17.2975 15.8836 17.5517 15.9496 17.7619 16.0932L21.5015 18.6528C21.5662 18.6983 21.6201 18.7573 21.6593 18.8257C21.6986 18.894 21.7224 18.97 21.729 19.0483C21.7357 19.1267 21.7249 19.2056 21.6976 19.2794C21.6703 19.3532 21.6271 19.4203 21.5709 19.4759L19.3958 21.6316C19.3397 21.6872 19.2721 21.7301 19.1976 21.7571C19.1231 21.7842 19.0435 21.7948 18.9644 21.7883C18.8854 21.7817 18.8087 21.7581 18.7397 21.7192C18.6708 21.6803 18.6113 21.6269 18.5653 21.5628L15.9826 17.8565C15.8372 17.6475 15.7707 17.3944 15.7947 17.1417C15.8187 16.8889 15.9316 16.6526 16.1138 16.4741ZM7.62913 8.06524L7.88624 7.81043C8.06682 7.6317 8.17844 7.39588 8.2017 7.144C8.22495 6.89212 8.15836 6.64012 8.01351 6.43188L5.43084 2.7256C5.38487 2.6615 5.32534 2.60812 5.25641 2.56918C5.18747 2.53023 5.1108 2.50666 5.03173 2.50011C4.95266 2.49355 4.87308 2.50419 4.79858 2.53126C4.72408 2.55832 4.65643 2.60117 4.60036 2.65681L2.42522 4.81253C2.36908 4.8681 2.32584 4.93515 2.29854 5.00898C2.27123 5.08282 2.26051 5.16167 2.26712 5.24003C2.27373 5.3184 2.2975 5.3944 2.3368 5.46272C2.3761 5.53104 2.42996 5.59003 2.49463 5.63559L6.2343 8.19521C6.44519 8.3393 6.70052 8.40524 6.95555 8.38148C7.21057 8.35772 7.44903 8.24576 7.62913 8.06524Z" stroke="white" stroke-linecap="round" stroke-linejoin="round"/>
</svg>
