<svg width="32" height="33" viewBox="0 0 32 33" fill="none" xmlns="http://www.w3.org/2000/svg">
<path d="M9.79979 7.53481C11.6214 6.2847 13.7843 5.61495 16 5.61495C18.2157 5.61495 20.3786 6.2847 22.2002 7.53481M24.9693 10.2792C26.2307 12.0845 26.9064 14.2281 26.9064 16.424C26.9064 18.6199 26.2307 20.7636 24.9693 22.5689M7.0307 10.2792C5.76933 12.0845 5.09355 14.2281 5.09355 16.424C5.09355 18.6199 5.76933 20.7636 7.03071 22.5689M9.79978 25.3132C11.6214 26.5633 13.7843 27.2331 16 27.2331C18.2157 27.2331 20.3786 26.5633 22.2002 25.3132M11.9672 10.6436C13.1527 9.83205 14.5593 9.3974 16 9.3974C17.4407 9.3974 18.8473 9.83205 20.0328 10.6436M21.8325 12.4273C22.6514 13.6021 23.0899 14.9961 23.0899 16.424C23.0899 17.8519 22.6514 19.2459 21.8325 20.4208M10.1675 12.4273C9.34864 13.6021 8.91007 14.9962 8.91007 16.424C8.91007 17.8519 9.34864 19.2459 10.1675 20.4208M11.9672 22.2045C13.1527 23.016 14.5593 23.4506 16 23.4506C17.4407 23.4506 18.8473 23.016 20.0328 22.2045M20.3709 12.347L20.1138 12.0922C19.9332 11.9134 19.8216 11.6776 19.7983 11.4257C19.775 11.1739 19.8416 10.9219 19.9865 10.7136L22.5692 7.00735C22.6151 6.94325 22.6747 6.88986 22.7436 6.85091C22.8125 6.81197 22.8892 6.7884 22.9683 6.78185C23.0474 6.7753 23.1269 6.78593 23.2014 6.81299C23.2759 6.84006 23.3436 6.8829 23.3996 6.93855L25.5748 9.09428C25.6309 9.14985 25.6742 9.21689 25.7015 9.29072C25.7288 9.36456 25.7395 9.44341 25.7329 9.52177C25.7263 9.60014 25.7025 9.67613 25.6632 9.74445C25.6239 9.81277 25.57 9.87177 25.5054 9.91733L21.7657 12.4769C21.5548 12.621 21.2995 12.687 21.0445 12.6632C20.7894 12.6395 20.551 12.5275 20.3709 12.347ZM11.8862 20.7559L11.6291 20.5011C11.4488 20.3221 11.2108 20.2115 10.9567 20.1884C10.7025 20.1654 10.4483 20.2314 10.2382 20.3749L6.49849 22.9345C6.43382 22.9801 6.37995 23.0391 6.34065 23.1074C6.30135 23.1757 6.27758 23.2517 6.27097 23.3301C6.26436 23.4085 6.27508 23.4873 6.30239 23.5611C6.3297 23.635 6.37293 23.702 6.42907 23.7576L8.60423 25.9133C8.6603 25.969 8.72794 26.0118 8.80244 26.0389C8.87694 26.0659 8.9565 26.0766 9.03557 26.07C9.11465 26.0635 9.19132 26.0399 9.26026 26.0009C9.32919 25.962 9.38872 25.9086 9.43469 25.8445L12.0174 22.1382C12.1627 21.9292 12.2293 21.6762 12.2053 21.4234C12.1813 21.1707 12.0684 20.9344 11.8862 20.7559ZM20.1138 20.7559L20.3709 20.5011C20.5512 20.3221 20.7892 20.2115 21.0433 20.1884C21.2975 20.1654 21.5517 20.2314 21.7619 20.3749L25.5015 22.9345C25.5662 22.9801 25.6201 23.0391 25.6593 23.1074C25.6986 23.1757 25.7224 23.2517 25.729 23.3301C25.7357 23.4084 25.7249 23.4873 25.6976 23.5611C25.6703 23.635 25.6271 23.702 25.5709 23.7576L23.3958 25.9133C23.3397 25.969 23.2721 26.0118 23.1976 26.0389C23.1231 26.0659 23.0435 26.0765 22.9644 26.07C22.8854 26.0634 22.8087 26.0399 22.7397 26.0009C22.6708 25.962 22.6113 25.9086 22.5653 25.8445L19.9826 22.1382C19.8372 21.9292 19.7707 21.6762 19.7947 21.4234C19.8187 21.1707 19.9316 20.9344 20.1138 20.7559ZM11.6291 12.347L11.8862 12.0922C12.0668 11.9134 12.1784 11.6776 12.2017 11.4257C12.2249 11.1739 12.1584 10.9219 12.0135 10.7136L9.43084 7.00734C9.38487 6.94324 9.32534 6.88986 9.25641 6.85092C9.18747 6.81197 9.1108 6.78839 9.03173 6.78184C8.95266 6.77529 8.87308 6.78593 8.79858 6.813C8.72408 6.84006 8.65643 6.88291 8.60036 6.93855L6.42522 9.09427C6.36908 9.14984 6.32584 9.21688 6.29854 9.29072C6.27123 9.36456 6.26051 9.4434 6.26712 9.52177C6.27373 9.60014 6.2975 9.67614 6.3368 9.74446C6.3761 9.81277 6.42996 9.87177 6.49463 9.91733L10.2343 12.4769C10.4452 12.621 10.7005 12.687 10.9555 12.6632C11.2106 12.6395 11.449 12.5275 11.6291 12.347Z" stroke="white" stroke-linecap="round" stroke-linejoin="round"/>
</svg>
